<?xml version="1.0" encoding="utf-8"?> <!-- Generator: IcoMoon.io --> <!DOCTYPE svg PUBLIC "-//W3C//DTD SVG 1.1//EN" "http://www.w3.org/Graphics/SVG/1.1/DTD/svg11.dtd"> <svg width="32" height="32" viewBox="0 0 32 32" xmlns="http://www.w3.org/2000/svg" xmlns:xlink="http://www.w3.org/1999/xlink" fill="#000000"><g><path d="M 29,4L 3,4 C 1.35,4,0,5.35,0,7l0,20 c0,1.65, 1.35,3, 3,3l 26,0 c 1.65,0, 3-1.35, 3-3L 32,7 C 32,5.35, 30.65,4, 29,4z M 12.461,17.199L 4,23.79L 4,8.113 L 12.461,17.199z M 5.512,8L 26.488,8 L 16,15.875L 5.512,8z M 12.79,17.553L 16,21l 3.21-3.447 L 25.79,26L 6.21,26 L 12.79,17.553z M 19.539,17.199L 28,8.113l0,15.676 L 19.539,17.199z"></path></g></svg>