<?xml version="1.0" encoding="utf-8"?> <!-- Generator: IcoMoon.io --> <!DOCTYPE svg PUBLIC "-//W3C//DTD SVG 1.1//EN" "http://www.w3.org/Graphics/SVG/1.1/DTD/svg11.dtd"> <svg width="32" height="32" viewBox="0 0 32 32" xmlns="http://www.w3.org/2000/svg" xmlns:xlink="http://www.w3.org/1999/xlink" fill="#000000"><g><path d="M 12,18.333c0,0, 6.373-3.824, 9.961-2.313c 0.744-1.133, 1.476-2.354, 2.194-3.601 C 20.645,11.559, 16,12.333, 16,12.333s 5.944-3.566, 9.583-2.45c 0.73-1.316, 1.439-2.614, 2.124-3.822 C 24.808,5.865, 22,6.333, 22,6.333s 3.723-2.234, 7.081-2.612C 30.137,2.006, 31.117,0.662, 32,0C 14.469,0, 4,20,0,32 l 2,0 l 6-10c0,0, 2,2, 8,0c 1.421-0.474, 2.842-1.789, 4.237-3.56C 16.717,17.547, 12,18.333, 12,18.333z"></path></g></svg>